<mxfile host="app.diagrams.net" modified="2023-10-02T08:24:09.230Z" agent="Mozilla/5.0 (Windows NT 10.0; Win64; x64) AppleWebKit/537.36 (KHTML, like Gecko) Chrome/117.0.0.0 Safari/537.36" etag="W7UOAOtuDmDD30cBvw7A" version="22.0.0" type="device">
  <diagram name="Page-1" id="s7TI3_do-STuzM4Z8Skx">
    <mxGraphModel dx="1316" dy="1743" grid="1" gridSize="10" guides="1" tooltips="1" connect="1" arrows="1" fold="1" page="1" pageScale="1" pageWidth="850" pageHeight="1100" math="0" shadow="0">
      <root>
        <mxCell id="0" />
        <mxCell id="1" parent="0" />
        <mxCell id="ozippn35LMsCHmxlTuhF-4" value="REDU Edu Apps&lt;br&gt;Backend Plan" style="shape=ext;double=1;rounded=1;whiteSpace=wrap;html=1;" vertex="1" parent="1">
          <mxGeometry x="350" y="-70" width="170" height="80" as="geometry" />
        </mxCell>
        <mxCell id="ozippn35LMsCHmxlTuhF-5" value="&lt;b&gt;&lt;font style=&quot;font-size: 19px;&quot;&gt;Learning Quest&lt;br&gt;Main DB&lt;/font&gt;&lt;/b&gt;" style="shape=datastore;whiteSpace=wrap;html=1;" vertex="1" parent="1">
          <mxGeometry x="330" y="200" width="210" height="220" as="geometry" />
        </mxCell>
        <mxCell id="ozippn35LMsCHmxlTuhF-16" style="edgeStyle=orthogonalEdgeStyle;rounded=0;orthogonalLoop=1;jettySize=auto;html=1;exitX=0;exitY=0.365;exitDx=0;exitDy=0;exitPerimeter=0;" edge="1" parent="1" source="ozippn35LMsCHmxlTuhF-10" target="ozippn35LMsCHmxlTuhF-15">
          <mxGeometry relative="1" as="geometry" />
        </mxCell>
        <mxCell id="ozippn35LMsCHmxlTuhF-10" value="&lt;b&gt;Primary APIs&lt;/b&gt;&lt;br&gt;&lt;br&gt;&lt;b&gt;(API with more &lt;/b&gt;&lt;br&gt;&lt;b&gt;access, and only For &lt;/b&gt;&lt;br&gt;&lt;b&gt;Redu Apps)&lt;/b&gt;" style="whiteSpace=wrap;html=1;shape=mxgraph.basic.pentagon" vertex="1" parent="1">
          <mxGeometry x="580" y="500" width="144.44" height="130" as="geometry" />
        </mxCell>
        <mxCell id="ozippn35LMsCHmxlTuhF-12" style="edgeStyle=orthogonalEdgeStyle;rounded=0;orthogonalLoop=1;jettySize=auto;html=1;exitX=1;exitY=0.5;exitDx=0;exitDy=0;entryX=0.5;entryY=0;entryDx=0;entryDy=0;entryPerimeter=0;" edge="1" parent="1" source="ozippn35LMsCHmxlTuhF-5" target="ozippn35LMsCHmxlTuhF-10">
          <mxGeometry relative="1" as="geometry" />
        </mxCell>
        <mxCell id="ozippn35LMsCHmxlTuhF-13" value="&lt;b&gt;APIs with&lt;br&gt;Limited access&lt;br&gt;&lt;/b&gt;" style="whiteSpace=wrap;html=1;shape=mxgraph.basic.pentagon" vertex="1" parent="1">
          <mxGeometry x="150" y="500" width="144.44" height="130" as="geometry" />
        </mxCell>
        <mxCell id="ozippn35LMsCHmxlTuhF-14" style="edgeStyle=orthogonalEdgeStyle;rounded=0;orthogonalLoop=1;jettySize=auto;html=1;exitX=0;exitY=0.5;exitDx=0;exitDy=0;entryX=0.5;entryY=0;entryDx=0;entryDy=0;entryPerimeter=0;" edge="1" parent="1" source="ozippn35LMsCHmxlTuhF-5" target="ozippn35LMsCHmxlTuhF-13">
          <mxGeometry relative="1" as="geometry" />
        </mxCell>
        <mxCell id="ozippn35LMsCHmxlTuhF-15" value="&lt;b&gt;Alphabet Story&lt;/b&gt;" style="image;sketch=0;aspect=fixed;html=1;points=[];align=center;fontSize=12;image=img/lib/mscae/App_Service_Mobile_App.svg;" vertex="1" parent="1">
          <mxGeometry x="460" y="720" width="68" height="100" as="geometry" />
        </mxCell>
        <mxCell id="ozippn35LMsCHmxlTuhF-17" value="&lt;b&gt;Treasure Hunt&lt;/b&gt;" style="image;sketch=0;aspect=fixed;html=1;points=[];align=center;fontSize=12;image=img/lib/mscae/App_Service_Mobile_App.svg;" vertex="1" parent="1">
          <mxGeometry x="573" y="830" width="68" height="100" as="geometry" />
        </mxCell>
        <mxCell id="ozippn35LMsCHmxlTuhF-20" value="&lt;b&gt;Little Sherlock&lt;/b&gt;" style="image;sketch=0;aspect=fixed;html=1;points=[];align=center;fontSize=12;image=img/lib/mscae/App_Service_Mobile_App.svg;" vertex="1" parent="1">
          <mxGeometry x="670" y="830" width="68" height="100" as="geometry" />
        </mxCell>
        <mxCell id="ozippn35LMsCHmxlTuhF-22" style="edgeStyle=orthogonalEdgeStyle;rounded=0;orthogonalLoop=1;jettySize=auto;html=1;exitX=0.81;exitY=1;exitDx=0;exitDy=0;exitPerimeter=0;entryX=0.397;entryY=-0.03;entryDx=0;entryDy=0;entryPerimeter=0;" edge="1" parent="1" source="ozippn35LMsCHmxlTuhF-10" target="ozippn35LMsCHmxlTuhF-20">
          <mxGeometry relative="1" as="geometry" />
        </mxCell>
        <mxCell id="ozippn35LMsCHmxlTuhF-23" style="edgeStyle=orthogonalEdgeStyle;rounded=0;orthogonalLoop=1;jettySize=auto;html=1;exitX=0.19;exitY=1;exitDx=0;exitDy=0;exitPerimeter=0;entryX=0.515;entryY=-0.01;entryDx=0;entryDy=0;entryPerimeter=0;" edge="1" parent="1" source="ozippn35LMsCHmxlTuhF-10" target="ozippn35LMsCHmxlTuhF-17">
          <mxGeometry relative="1" as="geometry" />
        </mxCell>
        <mxCell id="ozippn35LMsCHmxlTuhF-24" value="&lt;b&gt;Fruit Basket&lt;/b&gt;" style="image;sketch=0;aspect=fixed;html=1;points=[];align=center;fontSize=12;image=img/lib/mscae/App_Service_Mobile_App.svg;" vertex="1" parent="1">
          <mxGeometry x="800" y="720" width="68" height="100" as="geometry" />
        </mxCell>
        <mxCell id="ozippn35LMsCHmxlTuhF-25" style="edgeStyle=orthogonalEdgeStyle;rounded=0;orthogonalLoop=1;jettySize=auto;html=1;exitX=1;exitY=0.365;exitDx=0;exitDy=0;exitPerimeter=0;entryX=0.5;entryY=-0.02;entryDx=0;entryDy=0;entryPerimeter=0;" edge="1" parent="1" source="ozippn35LMsCHmxlTuhF-10" target="ozippn35LMsCHmxlTuhF-24">
          <mxGeometry relative="1" as="geometry" />
        </mxCell>
        <mxCell id="ozippn35LMsCHmxlTuhF-26" value="" style="sketch=0;shadow=0;dashed=0;html=1;strokeColor=none;labelPosition=center;verticalLabelPosition=bottom;verticalAlign=top;outlineConnect=0;align=center;shape=mxgraph.office.databases.database_mini_1;fillColor=#2072B8;" vertex="1" parent="1">
          <mxGeometry x="550" y="90" width="115" height="90" as="geometry" />
        </mxCell>
        <mxCell id="ozippn35LMsCHmxlTuhF-27" value="&lt;b&gt;&lt;font style=&quot;font-size: 16px;&quot;&gt;Xumm SDK/API&lt;/font&gt;&lt;/b&gt;" style="text;html=1;align=center;verticalAlign=middle;resizable=0;points=[];autosize=1;strokeColor=none;fillColor=none;" vertex="1" parent="1">
          <mxGeometry x="537" y="50" width="140" height="30" as="geometry" />
        </mxCell>
        <mxCell id="ozippn35LMsCHmxlTuhF-29" value="" style="sketch=0;shadow=0;dashed=0;html=1;strokeColor=none;labelPosition=center;verticalLabelPosition=bottom;verticalAlign=top;outlineConnect=0;align=center;shape=mxgraph.office.databases.database_mini_1;fillColor=#7FBA42;" vertex="1" parent="1">
          <mxGeometry x="180" y="90" width="110" height="90" as="geometry" />
        </mxCell>
        <mxCell id="ozippn35LMsCHmxlTuhF-30" style="edgeStyle=orthogonalEdgeStyle;rounded=0;orthogonalLoop=1;jettySize=auto;html=1;entryX=0.85;entryY=0.05;entryDx=0;entryDy=0;entryPerimeter=0;" edge="1" parent="1" source="ozippn35LMsCHmxlTuhF-26" target="ozippn35LMsCHmxlTuhF-5">
          <mxGeometry relative="1" as="geometry" />
        </mxCell>
        <mxCell id="ozippn35LMsCHmxlTuhF-31" value="&lt;b&gt;&lt;font style=&quot;font-size: 16px;&quot;&gt;3D Model Library&lt;/font&gt;&lt;/b&gt;" style="text;html=1;align=center;verticalAlign=middle;resizable=0;points=[];autosize=1;strokeColor=none;fillColor=none;" vertex="1" parent="1">
          <mxGeometry x="150" y="50" width="150" height="30" as="geometry" />
        </mxCell>
        <mxCell id="ozippn35LMsCHmxlTuhF-32" style="edgeStyle=orthogonalEdgeStyle;rounded=0;orthogonalLoop=1;jettySize=auto;html=1;entryX=0.15;entryY=0.05;entryDx=0;entryDy=0;entryPerimeter=0;" edge="1" parent="1" source="ozippn35LMsCHmxlTuhF-29" target="ozippn35LMsCHmxlTuhF-5">
          <mxGeometry relative="1" as="geometry" />
        </mxCell>
        <mxCell id="ozippn35LMsCHmxlTuhF-34" value="other App&lt;br&gt;using LQ Login" style="ellipse;shape=cloud;whiteSpace=wrap;html=1;" vertex="1" parent="1">
          <mxGeometry x="30" y="840" width="165" height="110" as="geometry" />
        </mxCell>
        <mxCell id="ozippn35LMsCHmxlTuhF-35" style="edgeStyle=orthogonalEdgeStyle;rounded=0;orthogonalLoop=1;jettySize=auto;html=1;exitX=0;exitY=0.365;exitDx=0;exitDy=0;exitPerimeter=0;entryX=0.4;entryY=0.1;entryDx=0;entryDy=0;entryPerimeter=0;" edge="1" parent="1" source="ozippn35LMsCHmxlTuhF-13" target="ozippn35LMsCHmxlTuhF-34">
          <mxGeometry relative="1" as="geometry" />
        </mxCell>
        <mxCell id="ozippn35LMsCHmxlTuhF-36" value="other App&lt;br&gt;using LQ Login" style="ellipse;shape=cloud;whiteSpace=wrap;html=1;" vertex="1" parent="1">
          <mxGeometry x="230" y="840" width="165" height="110" as="geometry" />
        </mxCell>
        <mxCell id="ozippn35LMsCHmxlTuhF-37" style="edgeStyle=orthogonalEdgeStyle;rounded=0;orthogonalLoop=1;jettySize=auto;html=1;exitX=1;exitY=0.365;exitDx=0;exitDy=0;exitPerimeter=0;entryX=0.88;entryY=0.25;entryDx=0;entryDy=0;entryPerimeter=0;" edge="1" parent="1" source="ozippn35LMsCHmxlTuhF-13" target="ozippn35LMsCHmxlTuhF-36">
          <mxGeometry relative="1" as="geometry" />
        </mxCell>
        <mxCell id="ozippn35LMsCHmxlTuhF-38" value="&lt;b&gt;For handling&amp;nbsp;subscription payments&lt;/b&gt;" style="rounded=1;whiteSpace=wrap;html=1;" vertex="1" parent="1">
          <mxGeometry x="680" y="105" width="160" height="60" as="geometry" />
        </mxCell>
        <mxCell id="ozippn35LMsCHmxlTuhF-41" value="&lt;b&gt;Will work as CDN and will provide 3D models that will be used for AR applications&lt;/b&gt;" style="rounded=1;whiteSpace=wrap;html=1;" vertex="1" parent="1">
          <mxGeometry x="-10" y="105" width="160" height="60" as="geometry" />
        </mxCell>
      </root>
    </mxGraphModel>
  </diagram>
</mxfile>
